<svg xmlns="http://www.w3.org/2000/svg" viewBox="0 0 512 512" width="256" height="256"><path fill="#dbdfe0" d="M510 300v-88l-55.8-9.6c-4.6-17.2-11.5-33.5-20.1-48.5l32.7-46.3-62.2-62.2-46.3 32.7c-15.1-8.7-31.4-15.5-48.5-20.1L300 2h-88l-9.6 55.8c-17.2 4.6-33.5 11.5-48.5 20.1l-46.3-32.7-62.2 62.2 32.7 46.3c-8.7 15.1-15.5 31.4-20.1 48.5L2 212v88l55.8 9.6c4.6 17.2 11.5 33.5 20.1 48.5l-32.7 46.3 62.2 62.2 46.3-32.7c15.1 8.7 31.4 15.5 48.5 20.1l9.8 56h88l9.6-55.8c17.2-4.6 33.5-11.5 48.5-20.1l46.3 32.7 62.2-62.2-32.7-46.3c8.7-15.1 15.5-31.4 20.1-48.5l56-9.8zm-254 58.2c-56.4 0-102.2-45.8-102.2-102.2S199.6 153.8 256 153.8c56.4 0 102.2 45.8 102.2 102.2S312.5 358.2 256 358.2z" class="colorDBDFE0 svgShape"></path><path fill="#788d9a" d="M256 123c-73.5 0-133 59.6-133 133 0 73.5 59.6 133 133 133s133-59.6 133-133c0-73.5-59.5-133-133-133zm0 221.9c-49.1 0-88.9-39.8-88.9-88.9s39.8-88.9 88.9-88.9 88.9 39.8 88.9 88.9-39.8 88.9-88.9 88.9z" class="color788D9A svgShape"></path></svg>